<mxfile host="app.diagrams.net" modified="2024-05-05T07:25:47.747Z" agent="Mozilla/5.0 (Windows NT 10.0; Win64; x64) AppleWebKit/537.36 (KHTML, like Gecko) Chrome/124.0.0.0 Safari/537.36 Edg/124.0.0.0" etag="g7KHMKUpdjkkSU2dCjgM" version="24.3.1" type="github">
  <diagram name="Trang-1" id="0lxTWm7fCItopQf3OwJO">
    <mxGraphModel dx="1066" dy="574" grid="1" gridSize="10" guides="1" tooltips="1" connect="1" arrows="1" fold="1" page="1" pageScale="1" pageWidth="850" pageHeight="1100" math="0" shadow="0">
      <root>
        <mxCell id="0" />
        <mxCell id="1" parent="0" />
        <mxCell id="QdqB2o7tGNXcahVqwCzd-1" value="" style="rounded=0;whiteSpace=wrap;html=1;fillColor=#fad7ac;strokeColor=#b46504;" vertex="1" parent="1">
          <mxGeometry x="320" y="180" width="280" height="270" as="geometry" />
        </mxCell>
        <mxCell id="QdqB2o7tGNXcahVqwCzd-2" value="&lt;font style=&quot;font-size: 14px;&quot;&gt;5V USB&lt;/font&gt;" style="rounded=1;whiteSpace=wrap;html=1;fillColor=#fff2cc;strokeColor=#d6b656;" vertex="1" parent="1">
          <mxGeometry x="90" y="180" width="80" height="40" as="geometry" />
        </mxCell>
        <mxCell id="QdqB2o7tGNXcahVqwCzd-3" value="&lt;font style=&quot;font-size: 13px;&quot;&gt;3.7V Pin&lt;/font&gt;" style="rounded=1;whiteSpace=wrap;html=1;fillColor=#fff2cc;strokeColor=#d6b656;" vertex="1" parent="1">
          <mxGeometry x="90" y="260" width="80" height="40" as="geometry" />
        </mxCell>
        <mxCell id="QdqB2o7tGNXcahVqwCzd-4" value="&lt;font style=&quot;font-size: 13px;&quot;&gt;Switch&lt;/font&gt;" style="ellipse;whiteSpace=wrap;html=1;aspect=fixed;fillColor=#0050ef;fontColor=#ffffff;strokeColor=#001DBC;" vertex="1" parent="1">
          <mxGeometry x="180" y="220" width="40" height="40" as="geometry" />
        </mxCell>
        <mxCell id="QdqB2o7tGNXcahVqwCzd-5" value="" style="endArrow=classic;html=1;rounded=0;exitX=1;exitY=0.5;exitDx=0;exitDy=0;" edge="1" parent="1" source="QdqB2o7tGNXcahVqwCzd-2">
          <mxGeometry width="50" height="50" relative="1" as="geometry">
            <mxPoint x="420" y="350" as="sourcePoint" />
            <mxPoint x="200" y="220" as="targetPoint" />
            <Array as="points">
              <mxPoint x="200" y="200" />
            </Array>
          </mxGeometry>
        </mxCell>
        <mxCell id="QdqB2o7tGNXcahVqwCzd-6" value="" style="endArrow=classic;html=1;rounded=0;exitX=1;exitY=0.5;exitDx=0;exitDy=0;entryX=0.5;entryY=1;entryDx=0;entryDy=0;" edge="1" parent="1" source="QdqB2o7tGNXcahVqwCzd-3" target="QdqB2o7tGNXcahVqwCzd-4">
          <mxGeometry width="50" height="50" relative="1" as="geometry">
            <mxPoint x="420" y="350" as="sourcePoint" />
            <mxPoint x="470" y="300" as="targetPoint" />
            <Array as="points">
              <mxPoint x="200" y="280" />
            </Array>
          </mxGeometry>
        </mxCell>
        <mxCell id="QdqB2o7tGNXcahVqwCzd-8" value="" style="endArrow=classic;html=1;rounded=0;exitX=0.935;exitY=0.249;exitDx=0;exitDy=0;entryX=0;entryY=0.5;entryDx=0;entryDy=0;exitPerimeter=0;" edge="1" parent="1" source="QdqB2o7tGNXcahVqwCzd-4" target="QdqB2o7tGNXcahVqwCzd-23">
          <mxGeometry width="50" height="50" relative="1" as="geometry">
            <mxPoint x="194.42213562373163" y="229.99786437626824" as="sourcePoint" />
            <mxPoint x="320" y="231.12" as="targetPoint" />
            <Array as="points">
              <mxPoint x="300" y="230" />
              <mxPoint x="300" y="335" />
            </Array>
          </mxGeometry>
        </mxCell>
        <mxCell id="QdqB2o7tGNXcahVqwCzd-9" value="" style="endArrow=classic;html=1;rounded=0;exitX=0.818;exitY=0.906;exitDx=0;exitDy=0;entryX=-0.033;entryY=0.595;entryDx=0;entryDy=0;entryPerimeter=0;exitPerimeter=0;" edge="1" parent="1" source="QdqB2o7tGNXcahVqwCzd-4" target="QdqB2o7tGNXcahVqwCzd-12">
          <mxGeometry width="50" height="50" relative="1" as="geometry">
            <mxPoint x="192" y="259" as="sourcePoint" />
            <mxPoint x="320" y="260" as="targetPoint" />
          </mxGeometry>
        </mxCell>
        <mxCell id="QdqB2o7tGNXcahVqwCzd-10" value="&lt;font style=&quot;font-size: 15px;&quot;&gt;5V&lt;/font&gt;" style="text;html=1;align=center;verticalAlign=middle;whiteSpace=wrap;rounded=0;" vertex="1" parent="1">
          <mxGeometry x="220" y="209" width="60" height="30" as="geometry" />
        </mxCell>
        <mxCell id="QdqB2o7tGNXcahVqwCzd-11" value="&lt;font style=&quot;font-size: 15px;&quot;&gt;3.7V&lt;/font&gt;" style="text;html=1;align=center;verticalAlign=middle;whiteSpace=wrap;rounded=0;" vertex="1" parent="1">
          <mxGeometry x="220" y="235" width="60" height="30" as="geometry" />
        </mxCell>
        <mxCell id="QdqB2o7tGNXcahVqwCzd-12" value="Mạch sạc và bảo vệ pin" style="rounded=1;whiteSpace=wrap;html=1;fillColor=#e3c800;fontColor=#000000;strokeColor=#B09500;" vertex="1" parent="1">
          <mxGeometry x="350" y="220" width="80" height="60" as="geometry" />
        </mxCell>
        <mxCell id="QdqB2o7tGNXcahVqwCzd-13" value="" style="shape=flexArrow;endArrow=classic;html=1;rounded=0;exitX=0.5;exitY=0;exitDx=0;exitDy=0;" edge="1" parent="1" source="QdqB2o7tGNXcahVqwCzd-12">
          <mxGeometry width="50" height="50" relative="1" as="geometry">
            <mxPoint x="360" y="250" as="sourcePoint" />
            <mxPoint x="390" y="150" as="targetPoint" />
          </mxGeometry>
        </mxCell>
        <mxCell id="QdqB2o7tGNXcahVqwCzd-14" value="&lt;font style=&quot;font-size: 14px;&quot;&gt;ADC&lt;/font&gt;" style="rounded=0;whiteSpace=wrap;html=1;fillColor=#f0a30a;fontColor=#000000;strokeColor=#BD7000;" vertex="1" parent="1">
          <mxGeometry x="350" y="110" width="80" height="40" as="geometry" />
        </mxCell>
        <mxCell id="QdqB2o7tGNXcahVqwCzd-15" value="Mạch Boost&lt;div&gt;9V/2A&lt;/div&gt;" style="rounded=1;whiteSpace=wrap;html=1;fillColor=#e3c800;fontColor=#000000;strokeColor=#B09500;" vertex="1" parent="1">
          <mxGeometry x="490" y="220" width="80" height="60" as="geometry" />
        </mxCell>
        <mxCell id="QdqB2o7tGNXcahVqwCzd-16" value="" style="endArrow=classic;html=1;rounded=0;exitX=1;exitY=0.5;exitDx=0;exitDy=0;entryX=0;entryY=0.5;entryDx=0;entryDy=0;" edge="1" parent="1" source="QdqB2o7tGNXcahVqwCzd-12" target="QdqB2o7tGNXcahVqwCzd-15">
          <mxGeometry width="50" height="50" relative="1" as="geometry">
            <mxPoint x="430" y="240" as="sourcePoint" />
            <mxPoint x="480" y="190" as="targetPoint" />
          </mxGeometry>
        </mxCell>
        <mxCell id="QdqB2o7tGNXcahVqwCzd-17" value="IC REG Linear 5V/150mA" style="rounded=1;whiteSpace=wrap;html=1;fillColor=#e3c800;fontColor=#000000;strokeColor=#B09500;" vertex="1" parent="1">
          <mxGeometry x="492.5" y="310" width="75" height="50" as="geometry" />
        </mxCell>
        <mxCell id="QdqB2o7tGNXcahVqwCzd-18" value="" style="endArrow=classic;html=1;rounded=0;exitX=0.5;exitY=1;exitDx=0;exitDy=0;entryX=0.498;entryY=0.051;entryDx=0;entryDy=0;entryPerimeter=0;" edge="1" parent="1" source="QdqB2o7tGNXcahVqwCzd-15" target="QdqB2o7tGNXcahVqwCzd-17">
          <mxGeometry width="50" height="50" relative="1" as="geometry">
            <mxPoint x="380" y="250" as="sourcePoint" />
            <mxPoint x="430" y="200" as="targetPoint" />
          </mxGeometry>
        </mxCell>
        <mxCell id="QdqB2o7tGNXcahVqwCzd-21" value="ADC, DAC, opamp" style="rounded=0;whiteSpace=wrap;html=1;fillColor=#f0a30a;fontColor=#000000;strokeColor=#BD7000;" vertex="1" parent="1">
          <mxGeometry x="640" y="307.5" width="80" height="55" as="geometry" />
        </mxCell>
        <mxCell id="QdqB2o7tGNXcahVqwCzd-22" value="" style="shape=flexArrow;endArrow=classic;html=1;rounded=0;exitX=1;exitY=0.5;exitDx=0;exitDy=0;entryX=0;entryY=0.5;entryDx=0;entryDy=0;" edge="1" parent="1" source="QdqB2o7tGNXcahVqwCzd-17" target="QdqB2o7tGNXcahVqwCzd-21">
          <mxGeometry width="50" height="50" relative="1" as="geometry">
            <mxPoint x="430" y="300" as="sourcePoint" />
            <mxPoint x="480" y="250" as="targetPoint" />
          </mxGeometry>
        </mxCell>
        <mxCell id="QdqB2o7tGNXcahVqwCzd-23" value="IC REG Linear 3.3V/1A" style="rounded=1;whiteSpace=wrap;html=1;fillColor=#e3c800;fontColor=#000000;strokeColor=#B09500;" vertex="1" parent="1">
          <mxGeometry x="350" y="310" width="80" height="50" as="geometry" />
        </mxCell>
        <mxCell id="QdqB2o7tGNXcahVqwCzd-24" value="" style="shape=flexArrow;endArrow=classic;html=1;rounded=0;width=11.86046511627907;endSize=6.6069767441860465;exitX=0;exitY=0.5;exitDx=0;exitDy=0;" edge="1" parent="1" source="QdqB2o7tGNXcahVqwCzd-17">
          <mxGeometry width="50" height="50" relative="1" as="geometry">
            <mxPoint x="260" y="335" as="sourcePoint" />
            <mxPoint x="430" y="335" as="targetPoint" />
          </mxGeometry>
        </mxCell>
        <mxCell id="QdqB2o7tGNXcahVqwCzd-26" value="MCU" style="rounded=0;whiteSpace=wrap;html=1;fillColor=#f0a30a;fontColor=#000000;strokeColor=#BD7000;" vertex="1" parent="1">
          <mxGeometry x="355" y="470" width="70" height="30" as="geometry" />
        </mxCell>
        <mxCell id="QdqB2o7tGNXcahVqwCzd-27" value="" style="shape=flexArrow;endArrow=classic;html=1;rounded=0;exitX=0.5;exitY=1;exitDx=0;exitDy=0;entryX=0.5;entryY=0;entryDx=0;entryDy=0;" edge="1" parent="1" source="QdqB2o7tGNXcahVqwCzd-23" target="QdqB2o7tGNXcahVqwCzd-26">
          <mxGeometry width="50" height="50" relative="1" as="geometry">
            <mxPoint x="400" y="380" as="sourcePoint" />
            <mxPoint x="450" y="330" as="targetPoint" />
          </mxGeometry>
        </mxCell>
        <mxCell id="QdqB2o7tGNXcahVqwCzd-29" value="Debug, SDcard" style="rounded=0;whiteSpace=wrap;html=1;fillColor=#f0a30a;fontColor=#000000;strokeColor=#BD7000;" vertex="1" parent="1">
          <mxGeometry x="450" y="470" width="60" height="30" as="geometry" />
        </mxCell>
        <mxCell id="QdqB2o7tGNXcahVqwCzd-30" value="" style="shape=flexArrow;endArrow=classic;html=1;rounded=0;entryX=0.5;entryY=0;entryDx=0;entryDy=0;" edge="1" parent="1">
          <mxGeometry width="50" height="50" relative="1" as="geometry">
            <mxPoint x="390" y="400" as="sourcePoint" />
            <mxPoint x="478" y="470" as="targetPoint" />
            <Array as="points">
              <mxPoint x="478" y="400" />
            </Array>
          </mxGeometry>
        </mxCell>
        <mxCell id="QdqB2o7tGNXcahVqwCzd-31" value="ESP32-BLE" style="rounded=0;whiteSpace=wrap;html=1;fillColor=#f0a30a;fontColor=#000000;strokeColor=#BD7000;" vertex="1" parent="1">
          <mxGeometry x="220" y="380" width="70" height="40" as="geometry" />
        </mxCell>
        <mxCell id="QdqB2o7tGNXcahVqwCzd-32" value="" style="shape=flexArrow;endArrow=classic;html=1;rounded=0;entryX=1;entryY=0.5;entryDx=0;entryDy=0;" edge="1" parent="1">
          <mxGeometry width="50" height="50" relative="1" as="geometry">
            <mxPoint x="390" y="399.98" as="sourcePoint" />
            <mxPoint x="290" y="399.98" as="targetPoint" />
            <Array as="points">
              <mxPoint x="360" y="399.98" />
            </Array>
          </mxGeometry>
        </mxCell>
        <mxCell id="QdqB2o7tGNXcahVqwCzd-35" value="IC VREF SUPPLY" style="rounded=1;whiteSpace=wrap;html=1;fillColor=#e3c800;fontColor=#000000;strokeColor=#B09500;" vertex="1" parent="1">
          <mxGeometry x="520" y="400" width="70" height="37.5" as="geometry" />
        </mxCell>
        <mxCell id="QdqB2o7tGNXcahVqwCzd-36" value="" style="shape=flexArrow;endArrow=classic;html=1;rounded=0;entryX=0.5;entryY=0;entryDx=0;entryDy=0;width=8.727272727272727;endSize=3.12;" edge="1" parent="1" target="QdqB2o7tGNXcahVqwCzd-35">
          <mxGeometry width="50" height="50" relative="1" as="geometry">
            <mxPoint x="492.5" y="380" as="sourcePoint" />
            <mxPoint x="555" y="350" as="targetPoint" />
            <Array as="points">
              <mxPoint x="520" y="380" />
              <mxPoint x="555" y="380" />
            </Array>
          </mxGeometry>
        </mxCell>
        <mxCell id="QdqB2o7tGNXcahVqwCzd-38" value="&lt;font style=&quot;font-size: 10px;&quot;&gt;5V&lt;/font&gt;" style="text;html=1;align=center;verticalAlign=middle;whiteSpace=wrap;rounded=0;" vertex="1" parent="1">
          <mxGeometry x="500" y="370" width="50" height="20" as="geometry" />
        </mxCell>
        <mxCell id="QdqB2o7tGNXcahVqwCzd-39" value="" style="shape=flexArrow;endArrow=classic;html=1;rounded=0;entryX=0.5;entryY=1;entryDx=0;entryDy=0;exitX=1;exitY=0.5;exitDx=0;exitDy=0;endWidth=24.050632911392405;endSize=6.367088607594936;width=15.189873417721518;" edge="1" parent="1" source="QdqB2o7tGNXcahVqwCzd-35" target="QdqB2o7tGNXcahVqwCzd-21">
          <mxGeometry width="50" height="50" relative="1" as="geometry">
            <mxPoint x="490" y="370" as="sourcePoint" />
            <mxPoint x="540" y="320" as="targetPoint" />
            <Array as="points">
              <mxPoint x="680" y="420" />
            </Array>
          </mxGeometry>
        </mxCell>
        <mxCell id="QdqB2o7tGNXcahVqwCzd-40" value="&lt;font style=&quot;font-size: 11px;&quot;&gt;2.5V&lt;/font&gt;" style="text;html=1;align=center;verticalAlign=middle;whiteSpace=wrap;rounded=0;" vertex="1" parent="1">
          <mxGeometry x="605" y="404" width="60" height="30" as="geometry" />
        </mxCell>
      </root>
    </mxGraphModel>
  </diagram>
</mxfile>
